#!OML:ASF I:\Actors\actors\Patient Classification 2\Patient 1\Session 1\actor1.ASF
:FULLY-SPECIFIED
:DEGREES
733
root -0.739482 18.4738 6.53123 -4.94542 1.90497 -3.23828
lowerback 6.07282 0.51304 -2.0049
upperback -2.89236 0.514672 0.0695874
thorax -6.44689 0.340243 1.13903
lowerneck -12.9532 -1.52753 1.38641
upperneck 19.5633 -2.76743 1.61483
head 8.21171 -1.04645 0.00778222
rclavicle 2.78299e-015 -6.36111e-015
rhumerus -50.2701 -0.521848 -71.1618
rradius 99.0308
rwrist -13.0042
rhand -16.7146 -32.2374
rfingers 7.12502
rthumb 9.51071 -62.0028
lclavicle 2.78299e-015 -6.36111e-015
lhumerus -48.6518 4.02701 83.3414
lradius 45.5393
lwrist -4.50481
lhand -9.65303 -25.6126
lfingers 7.12502
lthumb 16.3177 3.72087
rfemur 0 0 0
rtibia 0
rfoot 0 0
rtoes 0
lfemur 1.59667 -4.56346 -10.9549
ltibia 25.713
lfoot -23.1496 8.13958
ltoes -57.5411
734
root -0.729969 18.4803 6.51837 -4.76815 1.52767 -3.19653
lowerback 5.95434 0.556562 -1.86313
upperback -2.95447 0.588047 0.0826478
thorax -6.44535 0.371122 1.0651
lowerneck -12.7671 -1.49704 1.22462
upperneck 19.5987 -2.70515 1.69991
head 8.19307 -1.02129 0.0711367
rclavicle -2.48481e-015 -2.38542e-015
rhumerus -51.02 -0.716581 -72.1963
rradius 97.5354
rwrist -11.879
rhand -17.8356 -31.8729
rfingers 7.12502
rthumb 8.42899 -61.6847
lclavicle -2.48481e-015 -2.38542e-015
lhumerus -48.7632 4.07368 83.5134
lradius 45.5227
lwrist -4.47778
lhand -9.68312 -25.6734
lfingers 7.12502
lthumb 16.2888 3.6624
rfemur 0 0 0
rtibia 0
rfoot 0 0
rtoes 0
lfemur 1.56469 -4.51474 -11.08
ltibia 25.5337
lfoot -23.2252 8.43179
ltoes -57.4949
735
root -0.705195 18.4914 6.49735 -4.50198 0.767247 -3.05759
lowerback 5.88452 0.72882 -1.56712
upperback -3.06368 0.839634 0.00204501
thorax -6.52277 0.481617 0.785764
lowerneck -12.5735 -1.43042 1.24747
upperneck 19.5948 -2.60344 1.65276
head 8.15527 -0.977664 0.0642156
rclavicle 1.42131e-014 -2.38542e-015
rhumerus -51.7643 -0.873385 -73.2238
rradius 96.0686
rwrist -11.2331
rhand -18.9813 -32.2913
rfingers 7.12502
rthumb 7.32317 -62.1446
lclavicle 1.42131e-014 -2.38542e-015
lhumerus -48.8389 4.11372 83.6313
lradius 45.4908
lwrist -4.47671
lhand -9.62152 -25.7848
lfingers 7.12502
lthumb 16.3481 3.54616
rfemur 0 0 0
rtibia 0
rfoot 0 0
rtoes 0
lfemur 1.48471 -4.35193 -11.4214
ltibia 25.3635
lfoot -23.4187 9.03962
ltoes -57.4057
736
root -0.702157 18.4963 6.49177 -4.39493 0.611412 -2.9864
lowerback 5.72546 0.726318 -1.55749
upperback -3.08688 0.83829 -0.0229737
thorax -6.45515 0.479713 0.756106
lowerneck -12.3902 -1.37453 1.29759
upperneck 19.6521 -2.53044 1.63474
head 8.14016 -0.941668 0.0589658
rclavicle -1.30204e-014 2.38542e-015
rhumerus -52.5064 -1.08421 -74.1757
rradius 94.6438
rwrist -11.3662
rhand -19.702 -32.6659
rfingers 7.12502
rthumb 6.62749 -62.5422
lclavicle -1.30204e-014 2.38542e-015
lhumerus -48.8933 4.17859 83.6995
lradius 45.4061
lwrist -4.55194
lhand -9.49888 -25.7724
lfingers 7.12502
lthumb 16.4662 3.5488
rfemur 0 0 0
rtibia 0
rfoot 0 0
rtoes 0
lfemur 1.48984 -4.41035 -11.5539
ltibia 25.2047
lfoot -23.4975 9.32286
ltoes -57.4332
737
root -0.700716 18.501 6.48729 -4.29447 0.565351 -2.93143
lowerback 5.56921 0.691108 -1.55729
upperback -3.10457 0.794293 -0.0164009
thorax -6.38288 0.457904 0.769447
lowerneck -12.2469 -1.36275 1.20165
upperneck 19.7716 -2.51761 1.74438
head 8.15691 -0.931149 0.113448
rclavicle -1.11319e-014 6.36111e-015
rhumerus -53.1202 -1.40592 -74.9996
rradius 93.0395
rwrist -11.4987
rhand -20.0456 -32.162
rfingers 7.12502
rthumb 6.29575 -62.0484
lclavicle -1.11319e-014 6.36111e-015
lhumerus -48.9048 4.36984 83.7629
lradius 45.2365
lwrist -4.74681
lhand -9.46261 -25.7843
lfingers 7.12502
lthumb 16.5011 3.53404
rfemur 0 0 0
rtibia 0
rfoot 0 0
rtoes 0
lfemur 1.48358 -4.57354 -11.6666
ltibia 25.0503
lfoot -23.5419 9.60352
ltoes -57.382
738
root -0.700019 18.5048 6.48316 -4.19774 0.604985 -2.90299
lowerback 5.39355 0.618598 -1.55751
upperback -3.09743 0.703083 0.0273364
thorax -6.27247 0.413308 0.827046
lowerneck -12.1053 -1.36651 1.04536
upperneck 19.8397 -2.51586 1.86872
head 8.15763 -0.929785 0.181841
rclavicle 6.4605e-015 1.03368e-014
rhumerus -53.6068 -1.81248 -75.7329
rradius 91.2786
rwrist -11.2984
rhand -20.5014 -31.4052
rfingers 7.12502
rthumb 5.85578 -61.3043
lclavicle 6.4605e-015 1.03368e-014
lhumerus -48.8747 4.60396 83.8543
lradius 45.0454
lwrist -4.91635
lhand -9.44297 -25.9371
lfingers 7.12502
lthumb 16.52 3.37964
rfemur 0 0 0
rtibia 0
rfoot 0 0
rtoes 0
lfemur 1.45658 -4.73897 -11.7197
ltibia 24.8925
lfoot -23.5753 9.71306
ltoes -57.2236
739
root -0.697618 18.5099 6.47697 -4.07239 0.527973 -2.8329
lowerback 5.21449 0.595855 -1.5666
upperback -3.10103 0.675746 0.038319
thorax -6.17287 0.399882 0.84819
lowerneck -11.9299 -1.36635 1.05669
upperneck 19.8481 -2.50213 1.80854
head 8.12739 -0.929761 0.162737
rclavicle 6.95746e-015 -5.1684e-015
rhumerus -54.1144 -2.30017 -76.4338
rradius 89.486
rwrist -10.6126
rhand -21.1655 -30.6807
rfingers 7.12502
rthumb 5.21454 -60.5966
lclavicle 6.95746e-015 -5.1684e-015
lhumerus -48.8322 4.68567 83.9911
lradius 44.8858
lwrist -5.02592
lhand -9.44197 -25.9663
lfingers 7.12502
lthumb 16.521 3.35034
rfemur 0 0 0
rtibia 0
rfoot 0 0
rtoes 0
lfemur 1.40555 -4.81416 -11.82
ltibia 24.7418
lfoot -23.6128 9.8204
ltoes -57.1193
740
root -0.694795 18.5153 6.47048 -3.94218 0.383644 -2.73809
lowerback 5.06463 0.599616 -1.57722
upperback -3.11596 0.681812 0.0259456
thorax -6.10268 0.402691 0.841944
lowerneck -11.8448 -1.34747 1.14725
upperneck 19.9319 -2.45572 1.62306
head 8.13585 -0.918951 0.0913683
rclavicle 1.6201e-014 1.27222e-014
rhumerus -54.581 -2.85197 -77.0547
rradius 87.5932
rwrist -9.61221
rhand -21.6535 -30.0954
rfingers 7.12502
rthumb 4.74331 -60.0223
lclavicle 1.6201e-014 1.27222e-014
lhumerus -48.7613 4.79804 84.0971
lradius 44.7083
lwrist -5.30257
lhand -9.52525 -25.822
lfingers 7.12502
lthumb 16.4408 3.50136
rfemur 0 0 0
rtibia 0
rfoot 0 0
rtoes 0
lfemur 1.36178 -4.83406 -11.9568
ltibia 24.5966
lfoot -23.6069 10.0029
ltoes -57.1282
741
root -0.692619 18.5189 6.46465 -3.84512 0.282674 -2.68861
lowerback 4.95204 0.580008 -1.55098
upperback -3.13544 0.659882 0.0335229
thorax -6.05767 0.390797 0.838286
lowerneck -11.7527 -1.2985 1.19269
upperneck 20.0217 -2.36526 1.47207
head 8.14609 -0.887108 0.0435428
rclavicle 1.31198e-014 1.15295e-014
rhumerus -54.868 -3.40567 -77.5713
rradius 85.3988
rwrist -8.67434
rhand -21.8106 -29.4645
rfingers 7.12502
rthumb 4.59164 -59.3948
lclavicle 1.31198e-014 1.15295e-014
lhumerus -48.71 5.00508 84.1602
lradius 44.5121
lwrist -5.60183
lhand -9.6136 -25.7607
lfingers 7.12502
lthumb 16.3557 3.56966
rfemur 0 0 0
rtibia 0
rfoot 0 0
rtoes 0
lfemur 1.35 -4.88107 -12.0399
ltibia 24.4453
lfoot -23.6236 10.1352
ltoes -57.0285
742
root -0.690205 18.5222 6.4579 -3.7671 0.196196 -2.64601
lowerback 4.84576 0.562896 -1.53335
upperback -3.1449 0.640986 0.049119
thorax -6.00606 0.380835 0.847426
lowerneck -11.6033 -1.26062 1.17744
upperneck 20.0762 -2.3014 1.44149
head 8.13669 -0.86131 0.0435276
rclavicle 4.57205e-015 7.55382e-015
rhumerus -55.0602 -3.91946 -78.0252
rradius 83.1463
rwrist -8.11051
rhand -21.6889 -28.8374
rfingers 7.12502
rthumb 4.70916 -58.7651
lclavicle 4.57205e-015 7.55382e-015
lhumerus -48.6718 5.18102 84.235
lradius 44.3141
lwrist -5.74325
lhand -9.59114 -25.8294
lfingers 7.12502
lthumb 16.3773 3.49917
rfemur 0 0 0
rtibia 0
rfoot 0 0
rtoes 0
lfemur 1.35195 -4.94803 -12.1127
ltibia 24.2915
lfoot -23.6673 10.2116
ltoes -56.7833
743
root -0.688486 18.5263 6.45039 -3.69274 0.0833283 -2.5728
lowerback 4.70707 0.567173 -1.57613
upperback -3.11599 0.646915 0.0621715
thorax -5.89692 0.384928 0.885799
lowerneck -11.5241 -1.25041 1.17854
upperneck 20.1529 -2.28062 1.40769
head 8.14736 -0.8543 0.0346268
rclavicle 5.46658e-015 -1.03368e-014
rhumerus -55.2312 -4.41381 -78.4506
rradius 81.0364
rwrist -7.90738
rhand -21.5805 -28.3629
rfingers 7.12502
rthumb 4.81383 -58.2882
lclavicle 5.46658e-015 -1.03368e-014
lhumerus -48.5572 5.32589 84.3187
lradius 44.0604
lwrist -5.8621
lhand -9.53453 -25.9255
lfingers 7.12502
lthumb 16.4318 3.39852
rfemur 0 0 0
rtibia 0
rfoot 0 0
rtoes 0
lfemur 1.33426 -5.02473 -12.2249
ltibia 24.1797
lfoot -23.7125 10.3556
ltoes -56.6193
744
root -0.686566 18.5305 6.4435 -3.63663 -0.0381964 -2.52326
lowerback 4.58467 0.577609 -1.59466
upperback -3.08233 0.663125 0.0836462
thorax -5.79229 0.393254 0.91823
lowerneck -11.4044 -1.23186 1.26222
upperneck 20.1442 -2.24165 1.279
head 8.11995 -0.843136 -0.017097
rclavicle -1.49089e-014 0
rhumerus -55.4253 -4.91364 -78.8277
rradius 78.9416
rwrist -7.58995
rhand -21.7031 -28.0803
rfingers 7.12502
rthumb 4.69549 -58.0082
lclavicle -1.49089e-014 0
lhumerus -48.4311 5.42067 84.4295
lradius 43.7872
lwrist -6.02175
lhand -9.57529 -25.9508
lfingers 7.12502
lthumb 16.3926 3.37652
rfemur 0 0 0
rtibia 0
rfoot 0 0
rtoes 0
lfemur 1.28994 -5.14758 -12.3299
ltibia 24.1734
lfoot -23.7967 10.6033
ltoes -56.6664
